<svg width="66" height="66" viewBox="0 0 66 66" fill="none" xmlns="http://www.w3.org/2000/svg">
<circle cx="33" cy="33" r="33" fill="#9F65FF"/>
<path d="M27.25 23H26.2003C24.7301 23 23.9945 23 23.433 23.2861C22.9391 23.5378 22.5378 23.9391 22.2861 24.433C22 24.9945 22 25.7301 22 27.2003V39.8003C22 41.2704 22 42.0051 22.2861 42.5666C22.5378 43.0605 22.9391 43.4625 23.433 43.7142C23.994 44 24.7287 44 26.1959 44H27.25M27.25 23H38.8003C40.2704 23 41.0044 23 41.566 23.2861C42.0599 23.5378 42.4625 23.9391 42.7142 24.433C43 24.994 43 25.7287 43 27.1959V39.8047C43 41.272 43 42.0056 42.7142 42.5666C42.4625 43.0605 42.0599 43.4625 41.566 43.7142C41.005 44 40.2713 44 38.8041 44H27.25M27.25 23V44M32.5 32.1875H37.75M32.5 28.25H37.75" stroke="white" stroke-width="2" stroke-linecap="round" stroke-linejoin="round"/>
</svg>
