<svg width="52" height="52" viewBox="0 0 52 52" fill="none" xmlns="http://www.w3.org/2000/svg">
<circle cx="26" cy="26" r="26" fill="#C9A7FF"/>
<path d="M14 22.275C14 20.4944 14 19.6042 14.3931 18.9458C14.6287 18.5515 14.9584 18.2217 15.3528 17.9861C16.0111 17.5931 16.9014 17.5931 18.6819 17.5931H19.5694C19.6806 17.5931 19.7361 17.5931 19.7889 17.5903C20.2405 17.5736 20.6812 17.447 21.0728 17.2214C21.4644 16.9958 21.7951 16.6781 22.0361 16.2958L22.1611 16.1153C22.4093 15.783 22.7287 15.5104 23.0959 15.3177C23.4631 15.1249 23.8689 15.0168 24.2833 15.0014L24.5028 15H28.4972L28.7167 15.0014C29.131 15.0172 29.5365 15.1256 29.9035 15.3186C30.2705 15.5116 30.5896 15.7843 30.8375 16.1167C30.8694 16.1583 30.9014 16.2042 30.9639 16.2972L31.0903 16.4764C31.3601 16.8388 31.7143 17.13 32.1221 17.3246C32.5299 17.5191 32.9791 17.6113 33.4306 17.5931H34.3181C36.0986 17.5931 36.9889 17.5931 37.6472 17.9861C38.0417 18.2222 38.3708 18.5514 38.6056 18.9458C39 19.6042 39 20.4944 39 22.275V28.8889C39 31.5083 39 32.8167 38.1861 33.6306C37.3722 34.4444 36.0639 34.4444 33.4444 34.4444H19.5556C16.9361 34.4444 15.6278 34.4444 14.8139 33.6306C14 32.8167 14 31.5083 14 28.8889V22.275Z" stroke="white" stroke-width="2" stroke-linecap="round"/>
<path d="M30.8653 25.5152C30.8653 26.6729 30.4054 27.7832 29.5868 28.6019C28.7681 29.4205 27.6578 29.8805 26.5 29.8805C25.3423 29.8805 24.232 29.4205 23.4133 28.6019C22.5947 27.7832 22.1348 26.6729 22.1348 25.5152C22.1348 24.3574 22.5947 23.2471 23.4133 22.4285C24.232 21.6098 25.3423 21.1499 26.5 21.1499C27.6578 21.1499 28.7681 21.6098 29.5868 22.4285C30.4054 23.2471 30.8653 24.3574 30.8653 25.5152Z" stroke="white" stroke-width="2" stroke-linecap="round"/>
<path d="M32.8486 21.9441C32.8486 21.7336 32.9323 21.5317 33.0811 21.3829C33.23 21.234 33.4319 21.1504 33.6424 21.1504C33.8529 21.1504 34.0548 21.234 34.2037 21.3829C34.3525 21.5317 34.4361 21.7336 34.4361 21.9441C34.4361 22.1547 34.3525 22.3565 34.2037 22.5054C34.0548 22.6543 33.8529 22.7379 33.6424 22.7379C33.4319 22.7379 33.23 22.6543 33.0811 22.5054C32.9323 22.3565 32.8486 22.1547 32.8486 21.9441Z" fill="white"/>
</svg>
