<svg width="52" height="52" viewBox="0 0 52 52" fill="none" xmlns="http://www.w3.org/2000/svg">
<circle cx="26" cy="26" r="26" fill="#C9A7FF"/>
<path d="M28.9167 22.0835H31.3334V22.9982C32.1523 22.4511 33.1043 22.1366 34.0879 22.0884C35.0715 22.0402 36.0498 22.26 36.9182 22.7243C37.7867 23.1887 38.5127 23.8802 39.0188 24.725C39.5249 25.5698 39.792 26.5362 39.7917 27.521V34.1668H37.3751V27.521C37.3751 25.7931 35.9553 24.5002 34.3542 24.5002C32.7532 24.5002 31.3334 25.7931 31.3334 27.521V34.1668H28.9167V22.0835ZM26.5001 14.8335V17.2502H16.8334V23.2918H26.5001V25.7085H16.8334V31.7502H26.5001V34.1668H14.4167V14.8335H26.5001Z" fill="white"/>
</svg>
