<svg width="52" height="52" viewBox="0 0 52 52" fill="none" xmlns="http://www.w3.org/2000/svg">
<circle cx="26" cy="26" r="26" fill="#C9A7FF"/>
<path d="M31.3569 19.1954C30.4797 13.7931 28.4108 10 26.003 10C23.5953 10 21.5263 13.7931 20.6491 19.1954H31.3569ZM20.1954 25.003C20.1954 26.346 20.268 27.6346 20.395 28.8748H31.605C31.732 27.6346 31.8046 26.346 31.8046 25.003C31.8046 23.66 31.732 22.3714 31.605 21.1313H20.395C20.268 22.3714 20.1954 23.66 20.1954 25.003ZM39.8385 19.1954C38.1083 15.0877 34.6056 11.9117 30.2801 10.6292C31.7562 12.6739 32.7725 15.7532 33.3049 19.1954H39.8385ZM21.7199 10.6292C17.4005 11.9117 13.8917 15.0877 12.1676 19.1954H18.7011C19.2275 15.7532 20.2438 12.6739 21.7199 10.6292ZM40.4858 21.1313H33.5469C33.6739 22.4017 33.7465 23.7024 33.7465 25.003C33.7465 26.3037 33.6739 27.6044 33.5469 28.8748H40.4797C40.8125 27.6346 41 26.346 41 25.003C41 23.66 40.8125 22.3714 40.4858 21.1313ZM18.2595 25.003C18.2595 23.7024 18.3321 22.4017 18.4592 21.1313H11.5203C11.1936 22.3714 11 23.66 11 25.003C11 26.346 11.1936 27.6346 11.5203 28.8748H18.4531C18.3321 27.6044 18.2595 26.3037 18.2595 25.003ZM20.6491 30.8106C21.5263 36.2129 23.5953 40.0061 26.003 40.0061C28.4108 40.0061 30.4797 36.2129 31.3569 30.8106H20.6491ZM30.2861 39.3769C34.6056 38.0944 38.1143 34.9183 39.8445 30.8106H33.3109C32.7786 34.2529 31.7623 37.3321 30.2861 39.3769ZM12.1676 30.8106C13.8978 34.9183 17.4005 38.0944 21.726 39.3769C20.2498 37.3321 19.2335 34.2529 18.7011 30.8106H12.1676Z" fill="white"/>
</svg>
