<svg width="52" height="52" viewBox="0 0 52 52" fill="none" xmlns="http://www.w3.org/2000/svg">
<circle cx="26" cy="26" r="26" fill="#C9A7FF"/>
<path d="M26.4724 38.6223C29.2452 38.6223 31.4931 32.4388 31.4931 24.8111C31.4931 17.1835 29.2452 11 26.4724 11C23.6995 11 21.4517 17.1835 21.4517 24.8111C21.4517 32.4388 23.6995 38.6223 26.4724 38.6223Z" stroke="white" stroke-width="2" stroke-linecap="round"/>
<path d="M38.432 31.717C39.8184 29.3156 35.5873 24.2772 28.9815 20.4634C22.3757 16.6495 15.8968 15.5045 14.5104 17.9058C13.1239 20.3072 17.355 25.3456 23.9608 29.1595C30.5666 32.9733 37.0455 34.1184 38.432 31.717Z" stroke="white" stroke-width="2" stroke-linecap="round"/>
<path d="M29.0391 29.2417C35.6449 25.4279 39.876 20.3895 38.4896 17.9881C37.1031 15.5867 30.6242 16.7318 24.0184 20.5456C17.4126 24.3594 13.1815 29.3979 14.568 31.7992C15.9544 34.2006 22.4334 33.0556 29.0391 29.2417Z" stroke="white" stroke-width="2" stroke-linecap="round"/>
<path d="M26.6121 26.503C27.5004 26.503 28.2205 25.7829 28.2205 24.8945C28.2205 24.0062 27.5004 23.2861 26.6121 23.2861C25.7238 23.2861 25.0037 24.0062 25.0037 24.8945C25.0037 25.7829 25.7238 26.503 26.6121 26.503Z" stroke="white" stroke-width="2" stroke-linecap="round"/>
</svg>
