<svg width="66" height="66" viewBox="0 0 66 66" fill="none" xmlns="http://www.w3.org/2000/svg">
<circle cx="33" cy="33" r="33" fill="#9F65FF"/>
<path fill-rule="evenodd" clip-rule="evenodd" d="M19 27.6034C19 25.6133 20.5092 24 22.371 24H44.4355C46.2972 24 47.8065 25.6133 47.8065 27.6034V39.3966C47.8065 41.3867 46.2972 43 44.4355 43H22.371C20.5092 43 19 41.3867 19 39.3966V27.6034ZM22.371 25.9655C21.5247 25.9655 20.8387 26.6988 20.8387 27.6034V39.3966C20.8387 40.3012 21.5247 41.0345 22.371 41.0345H44.4355C45.2817 41.0345 45.9677 40.3012 45.9677 39.3966V27.6034C45.9677 26.6988 45.2817 25.9655 44.4355 25.9655H22.371Z" fill="white"/>
<path fill-rule="evenodd" clip-rule="evenodd" d="M33.4032 31.2932C32.1847 31.2932 31.1968 32.2811 31.1968 33.4997C31.1968 34.7183 32.1847 35.7061 33.4032 35.7061C34.6218 35.7061 35.6097 34.7183 35.6097 33.4997C35.6097 32.2811 34.6218 31.2932 33.4032 31.2932ZM29.7258 33.4997C29.7258 31.4687 31.3723 29.8223 33.4032 29.8223C35.4342 29.8223 37.0807 31.4687 37.0807 33.4997C37.0807 35.5307 35.4342 37.1771 33.4032 37.1771C31.3723 37.1771 29.7258 35.5307 29.7258 33.4997Z" fill="white"/>
<path fill-rule="evenodd" clip-rule="evenodd" d="M46.5806 29.2096C46.5806 29.7173 46.169 30.1289 45.6612 30.1289H45.0483C42.8481 30.1289 41.0644 28.3453 41.0644 26.145C41.0644 25.6373 41.476 25.2257 41.9838 25.2257C42.4915 25.2257 42.9031 25.6373 42.9031 26.145C42.9031 27.3298 43.8636 28.2902 45.0483 28.2902H45.6612C46.169 28.2902 46.5806 28.7018 46.5806 29.2096Z" fill="white"/>
<path fill-rule="evenodd" clip-rule="evenodd" d="M46.5806 37.7904C46.5806 37.2827 46.169 36.8711 45.6612 36.8711H45.0483C42.8481 36.8711 41.0644 38.6547 41.0644 40.855C41.0644 41.3627 41.476 41.7743 41.9838 41.7743C42.4915 41.7743 42.9031 41.3627 42.9031 40.855C42.9031 39.6702 43.8636 38.7098 45.0483 38.7098H45.6612C46.169 38.7098 46.5806 38.2982 46.5806 37.7904Z" fill="white"/>
<path fill-rule="evenodd" clip-rule="evenodd" d="M20.2258 29.2096C20.2258 29.7173 20.6374 30.1289 21.1452 30.1289H21.7581C23.9583 30.1289 25.742 28.3453 25.742 26.145C25.742 25.6373 25.3303 25.2257 24.8226 25.2257C24.3149 25.2257 23.9032 25.6373 23.9032 26.145C23.9032 27.3298 22.9428 28.2902 21.7581 28.2902H21.1452C20.6374 28.2902 20.2258 28.7018 20.2258 29.2096Z" fill="white"/>
<path fill-rule="evenodd" clip-rule="evenodd" d="M20.2258 37.7904C20.2258 37.2827 20.6374 36.8711 21.1452 36.8711H21.7581C23.9583 36.8711 25.742 38.6547 25.742 40.855C25.742 41.3627 25.3303 41.7743 24.8226 41.7743C24.3149 41.7743 23.9032 41.3627 23.9032 40.855C23.9032 39.6702 22.9428 38.7098 21.7581 38.7098H21.1452C20.6374 38.7098 20.2258 38.2982 20.2258 37.7904Z" fill="white"/>
</svg>
