<svg width="52" height="52" viewBox="0 0 52 52" fill="none" xmlns="http://www.w3.org/2000/svg">
<circle cx="26" cy="26" r="26" fill="#C9A7FF"/>
<path d="M31.6144 37.2366C31.5266 37.2366 31.1972 37.2645 31.0586 37.2645C24.02 37.2645 18.2941 31.5386 18.2941 24.5C18.2941 17.4614 24.02 11.7355 31.0586 11.7355C31.199 11.7355 31.5248 11.7634 31.6144 11.7634C32.0461 11.7634 32.4215 11.4588 32.5075 11.0326C32.5959 10.5936 32.3531 10.1552 31.9341 9.99781C30.1679 9.33543 28.34 9 26.5 9C17.9532 9 11 15.9532 11 24.5C11 33.0468 17.9532 40 26.5 40C28.3303 40 30.1498 39.6676 31.908 39.0119C32.2689 38.8896 32.5305 38.5493 32.5305 38.1485C32.5305 37.6587 32.1436 37.2366 31.6144 37.2366ZM41.4829 21.9486L36.8584 21.2765L34.7901 17.086C34.6793 16.862 34.4643 16.75 34.2494 16.75C34.0345 16.75 33.8195 16.862 33.7087 17.086L31.6404 21.2765L27.0159 21.9486C26.5212 22.02 26.3238 22.6279 26.6816 22.9772L30.0281 26.2389L29.2379 30.8447C29.1707 31.2346 29.4807 31.5507 29.8319 31.5507C29.9245 31.5507 30.0202 31.5289 30.1128 31.4798L34.25 29.3056L38.386 31.4798C38.4786 31.5283 38.5743 31.5507 38.6669 31.5507C39.0181 31.5507 39.3281 31.234 39.2609 30.8447L38.4707 26.2389L41.8172 22.9772C42.175 22.6279 41.9776 22.02 41.4829 21.9486Z" fill="white"/>
</svg>
