<svg width="52" height="52" viewBox="0 0 52 52" fill="none" xmlns="http://www.w3.org/2000/svg">
<circle cx="26" cy="26" r="26" fill="#C9A7FF"/>
<path d="M26 19.1351C27.9703 19.1351 29.5676 17.5379 29.5676 15.5676C29.5676 13.5973 27.9703 12 26 12C24.0297 12 22.4324 13.5973 22.4324 15.5676C22.4324 17.5379 24.0297 19.1351 26 19.1351Z" fill="white"/>
<path d="M19.4838 25.0861C20.5835 25.0842 21.9592 25.0824 23.6217 25.0815V23.8917C23.6217 22.5782 24.6865 21.5133 26 21.5133C27.3136 21.5133 28.3784 22.5782 28.3784 23.8917V25.0815C30.0409 25.0824 31.4166 25.0842 32.5163 25.0861C32.3158 23.8898 32.0537 22.8999 31.8266 22.1742C31.5212 21.1978 30.7378 20.4637 29.7123 20.2932C28.8769 20.1542 27.6588 20.0269 26.0003 20.0269C24.3417 20.0269 23.1235 20.1542 22.288 20.2932C21.2623 20.4637 20.4789 21.1978 20.1734 22.1744C19.9464 22.9001 19.6843 23.8899 19.4838 25.0861Z" fill="white"/>
<path d="M26.8919 23.8919C26.8919 23.3993 26.4926 23 26 23C25.5074 23 25.1081 23.3993 25.1081 23.8919V26.5679C20.1327 26.5717 17.3065 26.6065 16.4157 26.6195C15.9464 26.6263 15.347 26.887 15.1487 27.541C15.0667 27.8116 15 28.1775 15 28.6486C15 29.1198 15.0667 29.4857 15.1487 29.7563C15.347 30.4103 15.9464 30.671 16.4157 30.6778C16.5148 30.6793 16.6379 30.681 16.7852 30.6829C17.1231 33.4845 17.4277 35.647 17.5811 36.6996C17.7012 37.5235 18.3772 38.1543 19.2128 38.2096C20.4948 38.2946 23.3258 38.4595 26 38.4595C28.6742 38.4595 31.5052 38.2946 32.7872 38.2096C33.6229 38.1543 34.2988 37.5235 34.4189 36.6996C34.5723 35.647 34.8769 33.4845 35.2148 30.6829C35.3621 30.681 35.4852 30.6793 35.5843 30.6778C36.0536 30.671 36.653 30.4103 36.8513 29.7563C36.9333 29.4857 37 29.1198 37 28.6486C37 28.1775 36.9333 27.8116 36.8513 27.541C36.653 26.887 36.0536 26.6263 35.5843 26.6195C34.6935 26.6065 31.8673 26.5717 26.8919 26.5679V23.8919Z" fill="white"/>
</svg>
