<svg width="205" height="74" viewBox="0 0 205 74" fill="none" xmlns="http://www.w3.org/2000/svg">
<g id="Company logo">
<path id="Vector" d="M22.5577 9.25H0V63.2083L22.5577 9.25Z" fill="#FA0C00"/>
<path id="Vector_2" d="M38.4292 9.25H60.9575V63.2083L38.4292 9.25Z" fill="#FA0C00"/>
<path id="Vector_3" d="M30.4935 29.1372L44.8511 63.2084H35.4312L31.1401 52.3609H20.6328L30.4935 29.1372Z" fill="#FA0C00"/>
<path id="Vector_4" d="M97.7583 43.5642L100.418 51.1928C100.506 51.3838 100.639 51.472 100.874 51.472H105.988C106.267 51.472 106.311 51.3397 106.267 51.0605L95.7009 21.7075C95.6568 21.4723 95.6127 21.4282 95.3776 21.4282H89.0291C88.8528 21.4282 88.7499 21.5605 88.7499 21.7516C88.6617 23.2949 88.5295 23.7653 88.3384 24.2209L78.9186 51.0164C78.8745 51.3398 78.9774 51.472 79.2419 51.472H83.8122C84.0914 51.472 84.2237 51.3838 84.3265 51.1046L86.8395 43.5642H97.7583ZM88.2943 38.5814C89.6757 34.407 91.498 29.0568 92.2327 25.9995H92.2768C93.188 29.2038 95.3335 35.5535 96.3034 38.5814H88.2943Z" fill="#FA0C00"/>
<path id="Vector_5" d="M119.85 51.9275C122.599 51.9275 125.523 51.4277 128.491 50.1489C128.727 50.0607 128.771 49.9579 128.771 49.7374C128.683 48.9143 128.58 47.7237 128.58 46.8124V19.1791C128.58 19.0027 128.58 18.9146 128.359 18.9146H123.377C123.186 18.9146 123.098 19.0027 123.098 19.2379V28.6009C122.319 28.5127 121.776 28.4686 121.129 28.4686C113.091 28.4686 108.153 33.7748 108.153 40.4038C108.153 48.0911 113.223 51.9275 119.85 51.9275ZM123.098 46.8124C122.275 47.077 121.364 47.1798 120.438 47.1798C116.794 47.1798 113.811 45.122 113.811 40.1245C113.811 35.7003 116.882 33.0839 120.953 33.0839C121.776 33.0839 122.496 33.1721 123.098 33.4073V46.8124Z" fill="#FA0C00"/>
<path id="Vector_6" d="M144.664 28.4688C137.801 28.4688 133.554 33.7308 133.554 40.2276C133.554 46.0335 136.934 51.9276 144.561 51.9276C151.012 51.9276 155.538 47.18 155.538 40.0806C155.538 33.819 151.703 28.4688 144.664 28.4688ZM144.384 33.0841C148.264 33.0841 149.91 36.4207 149.91 40.2276C149.91 44.9311 147.485 47.2682 144.664 47.2682C141.181 47.2682 139.123 44.3432 139.123 40.1247C139.123 35.7886 141.313 33.0841 144.384 33.0841Z" fill="#FA0C00"/>
<path id="Vector_7" d="M160.689 18.9146C160.497 18.9146 160.365 19.0027 160.365 19.2379V50.5164C160.365 50.6487 160.497 50.8839 160.689 50.928C162.878 51.6041 165.171 51.9275 167.537 51.9275C174.311 51.9275 180.895 47.7237 180.895 39.2573C180.895 33.128 176.692 28.4686 170.108 28.4686C168.595 28.4686 167.184 28.7038 165.95 29.1153L165.891 19.282C165.891 18.9586 165.803 18.9146 165.479 18.9146H160.689ZM175.266 39.8159C175.266 44.8869 171.798 47.268 168.051 47.268C167.272 47.268 166.581 47.2239 165.95 47.0329V33.6866C166.67 33.4073 167.537 33.1721 169.138 33.1721C172.754 33.1721 175.266 35.4651 175.266 39.8159Z" fill="#FA0C00"/>
<path id="Vector_8" d="M199.487 41.4623C201.721 41.4623 203.558 41.4182 204.19 41.2712C204.425 41.2271 204.513 41.1389 204.557 40.9478C204.689 40.4481 204.748 39.4045 204.748 38.1257C204.748 33.7749 202.132 28.4688 195.372 28.4688C188.465 28.4688 184.63 34.0983 184.63 40.4481C184.63 46.0776 187.598 51.9276 195.916 51.9276C199.032 51.9276 201.045 51.4279 202.779 50.6048C202.955 50.5166 203.043 50.3696 203.043 50.105V46.2981C203.043 46.0776 202.911 46.0335 202.779 46.1217C201.045 46.8566 199.164 47.2241 197.106 47.2241C192.448 47.2241 190.332 44.6518 190.199 41.4623H199.487ZM190.199 37.5231C190.567 35.2889 191.978 32.8636 195.137 32.8636C198.62 32.8636 199.531 35.7886 199.531 37.1115C199.531 37.1556 199.531 37.3467 199.531 37.479C199.34 37.5231 198.752 37.5231 197.018 37.5231H190.199Z" fill="#FA0C00"/>
</g>
</svg>
